<svg xmlns="http://www.w3.org/2000/svg" viewBox="0 0 512 512" role="img" aria-labelledby="title desc">
  <title id="title">Windows C Drive Cleanup Skill Logo</title>
  <desc id="desc">A cute smiling C drive with a safety shield and sparkle accents.</desc>
  <defs>
    <linearGradient id="driveGradient" x1="110" y1="120" x2="390" y2="398" gradientUnits="userSpaceOnUse">
      <stop offset="0" stop-color="#8dd7ff"/>
      <stop offset="0.55" stop-color="#5aa8ff"/>
      <stop offset="1" stop-color="#4177e8"/>
    </linearGradient>
    <linearGradient id="shieldGradient" x1="300" y1="254" x2="410" y2="388" gradientUnits="userSpaceOnUse">
      <stop offset="0" stop-color="#9ff6cf"/>
      <stop offset="1" stop-color="#28b47d"/>
    </linearGradient>
    <filter id="softShadow" x="-20%" y="-20%" width="140%" height="140%">
      <feDropShadow dx="0" dy="16" stdDeviation="18" flood-color="#1e3a8a" flood-opacity="0.2"/>
    </filter>
  </defs>

  <rect width="512" height="512" rx="112" fill="#f6fbff"/>

  <g opacity="0.9">
    <path d="M96 122c0-18 15-33 33-33h202c18 0 33 15 33 33v48H96v-48z" fill="#d9efff"/>
    <path d="M364 170v202c0 28-23 51-51 51H147c-28 0-51-23-51-51V170h268z" fill="url(#driveGradient)" filter="url(#softShadow)"/>
    <path d="M122 206c0-12 10-22 22-22h172c12 0 22 10 22 22v19H122v-19z" fill="#ffffff" opacity="0.22"/>
    <path d="M132 344h196" stroke="#ffffff" stroke-width="18" stroke-linecap="round" opacity="0.26"/>
  </g>

  <g>
    <circle cx="183" cy="276" r="16" fill="#153a68"/>
    <circle cx="277" cy="276" r="16" fill="#153a68"/>
    <circle cx="177" cy="269" r="5" fill="#ffffff" opacity="0.75"/>
    <circle cx="271" cy="269" r="5" fill="#ffffff" opacity="0.75"/>
    <path d="M197 321c19 20 48 20 67 0" fill="none" stroke="#153a68" stroke-width="15" stroke-linecap="round"/>
    <circle cx="154" cy="310" r="14" fill="#ff9bb1" opacity="0.75"/>
    <circle cx="306" cy="310" r="14" fill="#ff9bb1" opacity="0.75"/>
  </g>

  <g>
    <path d="M230 113c-18-8-37-8-55 0" fill="none" stroke="#153a68" stroke-width="14" stroke-linecap="round"/>
    <path d="M155 126c-10 0-19-8-19-19s9-19 19-19 19 8 19 19-9 19-19 19z" fill="#ffcf5a"/>
    <path d="M306 126c-10 0-19-8-19-19s9-19 19-19 19 8 19 19-9 19-19 19z" fill="#ffcf5a"/>
  </g>

  <g filter="url(#softShadow)">
    <path d="M366 248l82 35v55c0 54-33 87-82 105-49-18-82-51-82-105v-55l82-35z" fill="#ffffff"/>
    <path d="M366 268l62 26v43c0 39-23 65-62 82-39-17-62-43-62-82v-43l62-26z" fill="url(#shieldGradient)"/>
    <path d="M337 344l21 21 43-52" fill="none" stroke="#ffffff" stroke-width="18" stroke-linecap="round" stroke-linejoin="round"/>
  </g>

  <g fill="none" stroke-linecap="round" stroke-linejoin="round">
    <path d="M74 272c-22 20-29 42-20 65 9 25 34 35 68 31" stroke="#ffbf47" stroke-width="14"/>
    <path d="M62 333l-25 38" stroke="#ffbf47" stroke-width="14"/>
    <path d="M42 365l48 30" stroke="#ffbf47" stroke-width="14"/>
    <path d="M67 355l42 27" stroke="#ffdf8a" stroke-width="8"/>
  </g>

  <g fill="#ffcf5a">
    <path d="M414 102l9 20 20 9-20 9-9 20-9-20-20-9 20-9 9-20z"/>
    <path d="M86 82l7 15 15 7-15 7-7 15-7-15-15-7 15-7 7-15z"/>
    <path d="M429 197l6 12 12 6-12 6-6 12-6-12-12-6 12-6 6-12z"/>
  </g>

  <g>
    <rect x="156" y="363" width="149" height="39" rx="19.5" fill="#ffffff" opacity="0.9"/>
    <text x="230.5" y="390" text-anchor="middle" font-family="Arial, Helvetica, sans-serif" font-size="30" font-weight="700" fill="#2563eb">C:</text>
  </g>
</svg>
